<svg xmlns="http://www.w3.org/2000/svg" width="35" height="30" fill="none" viewBox="0 0 35 30">
  <path fill="#0FA958" d="M35 16.184C35 23.806 28.032 30 17.5 30S0 23.806 0 16.184c3.515.022 6.934.833 9.784 2.322 2.85 1.49 4.99 3.583 6.125 5.99V13.883H7.955c-1.266 0-2.48-.364-3.375-1.012s-1.398-1.526-1.398-2.442V3.52c0-.242.105-.477.3-.673a1.66 1.66 0 0 1 .788-.42c.316-.076.658-.078.977-.006.319.072.598.215.798.408l4.869 4.605 5.25-6.907c.144-.162.342-.295.575-.387.234-.092.495-.14.761-.14s.527.048.76.14a1.5 1.5 0 0 1 .576.387l5.25 6.907 4.869-4.605c.2-.193.48-.336.798-.408.319-.072.66-.07.977.007.317.076.593.223.788.419.195.196.3.431.3.673v6.908c0 .916-.503 1.794-1.398 2.442-.895.648-2.109 1.012-3.375 1.012h-7.954v10.615c1.134-2.408 3.274-4.501 6.124-5.99 2.85-1.49 6.27-2.301 9.785-2.323Z"/>
</svg>
