<svg xmlns="http://www.w3.org/2000/svg" width="36" height="30" fill="none" viewBox="0 0 36 30">
  <path fill="#0FA958" d="M32.422 4.615h-5.624L25.457.874A1.322 1.322 0 0 0 24.208 0H11.522a1.32 1.32 0 0 0-1.245.874L8.933 4.615H3.308A3.302 3.302 0 0 0 0 7.912v18.791A3.302 3.302 0 0 0 3.308 30h29.114a3.302 3.302 0 0 0 3.308-3.297V7.913a3.302 3.302 0 0 0-3.308-3.298ZM17.865 23.407c-3.656 0-6.617-2.951-6.617-6.594 0-3.643 2.961-6.593 6.617-6.593s6.617 2.95 6.617 6.593-2.961 6.594-6.617 6.594Zm-3.97-6.594c0 1.05.418 2.056 1.163 2.797a3.977 3.977 0 0 0 5.614 0 3.949 3.949 0 0 0 0-5.594 3.977 3.977 0 0 0-5.614 0 3.95 3.95 0 0 0-1.163 2.797Z"/>
</svg>
